<?xml version="1.0" encoding="UTF-8" standalone="no"?>
<!--

       THE CURIA LAZY WEASEL
       3x40 S                        
       Isabel Monteiro                                                                                                                                                                            
       Dancedata ID:  19308 


       SVG crib 4620  created by Keith Rose  11.05.23   14:08:27           Prog V 249 
       keith@krose.plus.com
-->

<svg
   viewBox="-1 -1 113.13771 53.311632"
   version="1.1"
   id="svg2130"
   sodipodi:docname="double_dolphin_weasel_reel.svg"
   inkscape:version="1.1.2 (0a00cf5339, 2022-02-04)"
   width="113.13772"
   height="53.31163"
   xmlns:inkscape="http://www.inkscape.org/namespaces/inkscape"
   xmlns:sodipodi="http://sodipodi.sourceforge.net/DTD/sodipodi-0.dtd"
   xmlns="http://www.w3.org/2000/svg"
   xmlns:svg="http://www.w3.org/2000/svg"
   xmlns:rdf="http://www.w3.org/1999/02/22-rdf-syntax-ns#"
   xmlns:cc="http://creativecommons.org/ns#"
   xmlns:dc="http://purl.org/dc/elements/1.1/">
  <defs
     id="defs2134">
    <inkscape:path-effect
       effect="bspline"
       id="path-effect4508"
       is_visible="true"
       lpeversion="1"
       weight="33.333333"
       steps="2"
       helper_size="0"
       apply_no_weight="true"
       apply_with_weight="true"
       only_selected="false" />
    <inkscape:path-effect
       effect="bspline"
       id="path-effect4508-7"
       is_visible="true"
       lpeversion="1"
       weight="33.333333"
       steps="2"
       helper_size="0"
       apply_no_weight="true"
       apply_with_weight="true"
       only_selected="false" />
    <inkscape:path-effect
       effect="bspline"
       id="path-effect4508-6"
       is_visible="true"
       lpeversion="1"
       weight="33.333333"
       steps="2"
       helper_size="0"
       apply_no_weight="true"
       apply_with_weight="true"
       only_selected="false" />
    <inkscape:path-effect
       effect="bspline"
       id="path-effect4508-7-0"
       is_visible="true"
       lpeversion="1"
       weight="33.333333"
       steps="2"
       helper_size="0"
       apply_no_weight="true"
       apply_with_weight="true"
       only_selected="false" />
    <inkscape:path-effect
       effect="bspline"
       id="path-effect4508-9"
       is_visible="true"
       lpeversion="1"
       weight="33.333333"
       steps="2"
       helper_size="0"
       apply_no_weight="true"
       apply_with_weight="true"
       only_selected="false" />
    <inkscape:path-effect
       effect="bspline"
       id="path-effect4508-7-7"
       is_visible="true"
       lpeversion="1"
       weight="33.333333"
       steps="2"
       helper_size="0"
       apply_no_weight="true"
       apply_with_weight="true"
       only_selected="false" />
    <inkscape:path-effect
       effect="bspline"
       id="path-effect4508-3"
       is_visible="true"
       lpeversion="1"
       weight="33.333333"
       steps="2"
       helper_size="0"
       apply_no_weight="true"
       apply_with_weight="true"
       only_selected="false" />
    <inkscape:path-effect
       effect="bspline"
       id="path-effect4508-7-8"
       is_visible="true"
       lpeversion="1"
       weight="33.333333"
       steps="2"
       helper_size="0"
       apply_no_weight="true"
       apply_with_weight="true"
       only_selected="false" />
  </defs>
  <sodipodi:namedview
     id="namedview2132"
     pagecolor="#505050"
     bordercolor="#eeeeee"
     borderopacity="1"
     inkscape:pageshadow="0"
     inkscape:pageopacity="0"
     inkscape:pagecheckerboard="0"
     showgrid="false"
     inkscape:zoom="5.6568543"
     inkscape:cx="37.653436"
     inkscape:cy="22.362252"
     inkscape:window-width="1850"
     inkscape:window-height="1136"
     inkscape:window-x="1270"
     inkscape:window-y="431"
     inkscape:window-maximized="1"
     inkscape:current-layer="g2128"
     fit-margin-top="0"
     fit-margin-left="0"
     fit-margin-right="0"
     fit-margin-bottom="0" />
  <title
     id="title1672">   THE CURIA LAZY WEASEL    -    3x40 S                           </title>
  <g
     stroke="#000000"
     stroke-width="0.4"
     font-family="Helvetica"
     fill="#000000"
     transform="translate(-51.295795,-41.884037)"
     id="g2128">
    <text
       x="183.55"
       y="-5"
       font-size="6.5px"
       stroke-width="0.001"
       text-anchor="middle"
       id="text1680" />
    <rect
       x="50.295795"
       y="40.884037"
       width="113.13772"
       height="53.31163"
       fill="#ffffff"
       id="rect1686"
       style="stroke:none;stroke-width:0.28183" />
    <path
       stroke-width="0.001"
       fill="#000000"
       d="m 121.48795,52.685 0.172,1.225 2.45,0.345 -3.688,0.893 0.893,-3.688 0.172,1.225"
       id="path1692" />
    <path
       fill="none"
       style="stroke-dasharray:2, 1.2"
       stroke="#000000"
       d="m 135.06995,49.05 c -5.4,0 -11.7,1.35 -14.4,5.85"
       id="path1694" />
    <path
       fill="none"
       style="stroke-dasharray:2, 1.2"
       stroke="#000000"
       d="m 155.76995,69.75 c 0,-9 -5.85,-19.8 -20.25,-20.7"
       id="path1696" />
    <path
       stroke-width="0.001"
       fill="#000000"
       d="m 90.95347,86.315 -0.172,-1.225 -2.45,-0.345 3.688,-0.893 -0.893,3.688 -0.172,-1.225"
       id="path1698" />
    <path
       fill="none"
       stroke="#000000"
       d="m 77.221199,89.95 c 5.4,0 11.850271,-1.35 14.550271,-5.85"
       id="path1700"
       sodipodi:nodetypes="cc" />
    <path
       fill="none"
       stroke="#000000"
       d="m 91.77147,84.1 c 3.15,-3.15 6.3,-8.55 5.85,-13.95"
       id="path1836" />
    <path
       fill="none"
       style="stroke-dasharray:2, 1.2"
       stroke="#000000"
       d="m 120.21995,55.35 c -3.15,3.6 -4.95,8.1 -5.4,13.5"
       id="path1838" />
    <path
       stroke-width="0.001"
       fill="#000000"
       d="m 83.12347,66.954 0.823,0.924 2.23,-1.072 -2.573,2.788 -1.303,-3.563 0.823,0.924"
       id="path1840" />
    <path
       fill="none"
       stroke="#000000"
       d="m 97.17147,69.25 c 0,-9 -13.5,-8.55 -13.5,0"
       id="path1842" />
    <path
       fill="none"
       stroke="#000000"
       d="m 83.67147,69.25 c 0,9 -13.5,9 -13.5,0"
       id="path1844" />
    <path
       stroke-width="0.001"
       fill="#000000"
       d="m 56.12347,66.954 0.823,0.924 2.23,-1.072 -2.573,2.788 -1.303,-3.563 0.823,0.924"
       id="path1846" />
    <path
       fill="none"
       stroke="#000000"
       d="m 70.17147,69.25 c 0,-8.55 -13.5,-8.55 -13.5,0"
       id="path1848" />
    <circle
       cx="-97.171471"
       cy="69.25"
       r="3.5"
       fill="#ffffff"
       stroke="#000000"
       id="circle1850"
       transform="scale(-1,1)" />
    <text
       xml:space="preserve"
       x="97.223213"
       y="71.682533"
       stroke="#000000"
       fill="#000000"
       font-size="6.5px"
       stroke-width="0.001"
       text-anchor="middle"
       id="text1852">3</text>
    <path
       stroke-width="0.001"
       fill="#000000"
       d="m 156.31795,72.046 -0.823,-0.924 -2.23,1.072 2.573,-2.788 1.303,3.563 -0.823,-0.924"
       id="path1858" />
    <path
       fill="none"
       style="stroke-dasharray:2, 1.2"
       stroke="#000000"
       d="m 142.26995,69.75 c 0,8.55 13.5,8.55 13.5,0"
       id="path1860" />
    <line
       stroke="#000000"
       x1="56.5"
       y1="45.049999"
       x2="58.299999"
       y2="43.25"
       id="line1862" />
    <line
       stroke="#000000"
       x1="58.299999"
       y1="43.25"
       x2="103.95"
       y2="43.25"
       id="line1864"
       style="stroke-width:0.409061" />
    <line
       stroke="#000000"
       x1="103.95"
       y1="43.25"
       x2="105.75"
       y2="41.450001"
       id="line1866" />
    <line
       stroke="#000000"
       x1="155"
       y1="45.049999"
       x2="153.20001"
       y2="43.25"
       id="line1868" />
    <line
       stroke="#000000"
       x1="153.20001"
       y1="43.25"
       x2="107.55"
       y2="43.25"
       id="line1870"
       style="stroke-width:0.409061" />
    <line
       stroke="#000000"
       x1="107.55"
       y1="43.25"
       x2="105.75"
       y2="41.450001"
       id="line1872" />
    <path
       stroke-width="0.001"
       fill="#000000"
       d="m 129.31795,72.046 -0.823,-0.924 -2.23,1.072 2.573,-2.788 1.303,3.563 -0.823,-0.924"
       id="path1874" />
    <path
       fill="none"
       style="stroke-dasharray:2, 1.2"
       stroke="#000000"
       d="m 115.26995,69.75 c 0,9 13.5,8.55 13.5,0"
       id="path1876" />
    <path
       fill="none"
       style="stroke-dasharray:2, 1.2"
       stroke="#000000"
       d="m 128.76995,69.75 c 0,-9 13.5,-9 13.5,0"
       id="path1878" />
    <circle
       cx="-115.35985"
       cy="69.28347"
       r="3.5"
       fill="#ffffff"
       stroke="#000000"
       id="circle1854"
       transform="scale(-1,1)" />
    <polygon
       fill="#ffffff"
       stroke="#000000"
       points="145.13,66.37 145.12,73.12 151.87,73.13 151.88,66.38 "
       id="polygon1888"
       transform="matrix(-1,0,0,1,290.2222,-0.4844076)" />
    <text
       xml:space="preserve"
       x="141.83937"
       y="71.536781"
       stroke="#000000"
       fill="#000000"
       font-size="6.5px"
       stroke-width="0.001"
       text-anchor="middle"
       id="text1856">3</text>
    <polygon
       fill="#ffffff"
       stroke="#000000"
       points="124.88,66.38 118.13,66.37 118.12,73.12 124.87,73.13 "
       id="polygon1880"
       transform="matrix(-1,0,0,1,191.94029,-0.2009962)" />
    <text
       xml:space="preserve"
       x="70.711807"
       y="72.049004"
       stroke="#000000"
       fill="#000000"
       font-size="6.5px"
       stroke-width="0.001"
       text-anchor="middle"
       id="text1882">2</text>
    <polygon
       fill="#ffffff"
       stroke="#000000"
       points="124.87,52.87 131.62,52.88 131.63,46.13 124.88,46.12 "
       id="polygon1884"
       transform="matrix(-1,0,0,1,258.86643,0.19031802)" />
    <text
       xml:space="preserve"
       x="130.82309"
       y="52.000942"
       stroke="#000000"
       fill="#000000"
       font-size="6.5px"
       stroke-width="0.001"
       text-anchor="middle"
       id="text1886">1</text>
    <polygon
       fill="#ffffff"
       stroke="#000000"
       points="131.63,46.13 124.88,46.12 124.87,52.87 131.62,52.88 "
       id="polygon1884-9"
       transform="matrix(-1,0,0,1,210.37699,40.034054)" />
    <text
       xml:space="preserve"
       x="82.205643"
       y="91.960632"
       stroke="#000000"
       fill="#000000"
       font-size="6.5px"
       stroke-width="0.001"
       text-anchor="middle"
       id="text1886-7">4</text>
    <text
       xml:space="preserve"
       x="115.40063"
       y="71.603386"
       stroke="#000000"
       fill="#000000"
       font-size="6.5px"
       stroke-width="0.001"
       text-anchor="middle"
       id="text1890">2</text>
    <path
       fill="none"
       stroke="#000000"
       d="m 56.59681,69.927365 c 0,9 6.224389,19.122635 20.624389,20.022635"
       id="path2022"
       sodipodi:nodetypes="cc"
       style="stroke-width:0.4;stroke-linecap:round;stroke-miterlimit:4;stroke-dasharray:none" />
    <circle
       cx="-72.921471"
       cy="89.5"
       r="3.5"
       fill="#ffffff"
       stroke="#000000"
       id="circle2024"
       transform="scale(-1,1)" />
    <text
       xml:space="preserve"
       x="73.121704"
       y="92"
       stroke="#000000"
       fill="#000000"
       font-size="6.5px"
       stroke-width="0.001"
       text-anchor="middle"
       id="text2026">4</text>
    <circle
       cx="138.70374"
       cy="49.651966"
       r="3.5"
       fill="#ffffff"
       stroke="#000000"
       id="circle2024-8" />
    <text
       xml:space="preserve"
       x="138.6356"
       y="51.807571"
       stroke="#000000"
       fill="#000000"
       font-size="6.5px"
       stroke-width="0.001"
       text-anchor="middle"
       id="text2026-2">1</text>
    <g
       id="g6878"
       transform="matrix(0.98162066,0,0,0.98162066,0.02467102,0.89782594)"
       style="stroke-width:0.305617;stroke-miterlimit:4;stroke-dasharray:none">
      <path
         fill="none"
         stroke="#000000"
         d="m 103.20406,72.313476 c 0,0 1.17562,-2.979954 1.25958,-3.811159 0.0915,-0.905702 -1.48874,-2.006606 -1.48874,-2.006606"
         id="path1836-5-1"
         style="stroke-width:0.305617;stroke-linecap:round;stroke-miterlimit:4;stroke-dasharray:none"
         sodipodi:nodetypes="csc" />
      <path
         style="fill:none;stroke:#000000;stroke-width:0.305617;stroke-linecap:round;stroke-linejoin:miter;stroke-miterlimit:4;stroke-dasharray:none;stroke-opacity:1"
         d="m 103.14958,67.525321 c 0,0 -0.17468,-1.02961 -0.17468,-1.02961 0,0 1.04866,-0.03927 1.04866,-0.03927"
         id="path4506"
         inkscape:path-effect="#path-effect4508"
         inkscape:original-d="m 103.14958,67.525321 -0.17468,-1.02961 1.04866,-0.03927"
         sodipodi:nodetypes="ccc" />
      <path
         fill="none"
         stroke="#000000"
         d="m 103.97104,71.414907 c 0,0 0.41993,-0.747711 0.88064,-1.443051 0.48368,-0.72999 0.88473,-1.141263 0.94668,-1.754586 0.0915,-0.905704 -1.06676,-1.544759 -1.06676,-1.544759"
         id="path1836-5-1-8"
         style="stroke-width:0.305617;stroke-linecap:round;stroke-miterlimit:4;stroke-dasharray:none"
         sodipodi:nodetypes="cssc" />
      <path
         style="fill:none;stroke:#000000;stroke-width:0.305617;stroke-linecap:round;stroke-linejoin:miter;stroke-miterlimit:4;stroke-dasharray:none;stroke-opacity:1"
         d="m 104.90628,67.702121 c 0,0 -0.17468,-1.02961 -0.17468,-1.02961 0,0 1.04866,-0.03927 1.04866,-0.03927"
         id="path4506-8"
         inkscape:path-effect="#path-effect4508-7"
         inkscape:original-d="m 104.90628,67.702121 -0.17468,-1.02961 1.04866,-0.03927"
         sodipodi:nodetypes="ccc" />
    </g>
    <g
       id="g6878-3"
       transform="matrix(0.98162066,0,0,0.98162066,57.174774,1.002934)"
       style="stroke-width:0.305617;stroke-miterlimit:4;stroke-dasharray:none">
      <path
         fill="none"
         stroke="#000000"
         d="m 103.20406,72.313476 c 0,0 1.17562,-2.979954 1.25958,-3.811159 0.0915,-0.905702 -1.48874,-2.006606 -1.48874,-2.006606"
         id="path1836-5-1-7"
         style="stroke-width:0.305617;stroke-linecap:round;stroke-miterlimit:4;stroke-dasharray:none"
         sodipodi:nodetypes="csc" />
      <path
         style="fill:none;stroke:#000000;stroke-width:0.305617;stroke-linecap:round;stroke-linejoin:miter;stroke-miterlimit:4;stroke-dasharray:none;stroke-opacity:1"
         d="m 103.14958,67.525321 c 0,0 -0.17468,-1.02961 -0.17468,-1.02961 0,0 1.04866,-0.03927 1.04866,-0.03927"
         id="path4506-9"
         inkscape:path-effect="#path-effect4508-3"
         inkscape:original-d="m 103.14958,67.525321 -0.17468,-1.02961 1.04866,-0.03927"
         sodipodi:nodetypes="ccc" />
      <path
         fill="none"
         stroke="#000000"
         d="m 103.97104,71.414907 c 0,0 0.41993,-0.747711 0.88064,-1.443051 0.48368,-0.72999 0.88473,-1.141263 0.94668,-1.754586 0.0915,-0.905704 -1.06676,-1.544759 -1.06676,-1.544759"
         id="path1836-5-1-8-3"
         style="stroke-width:0.305617;stroke-linecap:round;stroke-miterlimit:4;stroke-dasharray:none"
         sodipodi:nodetypes="cssc" />
      <path
         style="fill:none;stroke:#000000;stroke-width:0.305617;stroke-linecap:round;stroke-linejoin:miter;stroke-miterlimit:4;stroke-dasharray:none;stroke-opacity:1"
         d="m 104.90628,67.702121 c 0,0 -0.17468,-1.02961 -0.17468,-1.02961 0,0 1.04866,-0.03927 1.04866,-0.03927"
         id="path4506-8-7"
         inkscape:path-effect="#path-effect4508-7-8"
         inkscape:original-d="m 104.90628,67.702121 -0.17468,-1.02961 1.04866,-0.03927"
         sodipodi:nodetypes="ccc" />
    </g>
    <g
       id="g6878-5"
       transform="matrix(-0.98162066,0,0,-0.98162066,212.19784,137.74175)"
       style="stroke-width:0.305617;stroke-miterlimit:4;stroke-dasharray:none">
      <path
         fill="none"
         stroke="#000000"
         d="m 103.20406,72.313476 c 0,0 1.17562,-2.979954 1.25958,-3.811159 0.0915,-0.905702 -1.48874,-2.006606 -1.48874,-2.006606"
         id="path1836-5-1-9"
         style="stroke-width:0.305617;stroke-linecap:round;stroke-miterlimit:4;stroke-dasharray:none"
         sodipodi:nodetypes="csc" />
      <path
         style="fill:none;stroke:#000000;stroke-width:0.305617;stroke-linecap:round;stroke-linejoin:miter;stroke-miterlimit:4;stroke-dasharray:none;stroke-opacity:1"
         d="m 103.14958,67.525321 c 0,0 -0.17468,-1.02961 -0.17468,-1.02961 0,0 1.04866,-0.03927 1.04866,-0.03927"
         id="path4506-78"
         inkscape:path-effect="#path-effect4508-9"
         inkscape:original-d="m 103.14958,67.525321 -0.17468,-1.02961 1.04866,-0.03927"
         sodipodi:nodetypes="ccc" />
      <path
         fill="none"
         stroke="#000000"
         d="m 103.97104,71.414907 c 0,0 0.41993,-0.747711 0.88064,-1.443051 0.48368,-0.72999 0.88473,-1.141263 0.94668,-1.754586 0.0915,-0.905704 -1.06676,-1.544759 -1.06676,-1.544759"
         id="path1836-5-1-8-5"
         style="stroke-width:0.305617;stroke-linecap:round;stroke-miterlimit:4;stroke-dasharray:none"
         sodipodi:nodetypes="cssc" />
      <path
         style="fill:none;stroke:#000000;stroke-width:0.305617;stroke-linecap:round;stroke-linejoin:miter;stroke-miterlimit:4;stroke-dasharray:none;stroke-opacity:1"
         d="m 104.90628,67.702121 c 0,0 -0.17468,-1.02961 -0.17468,-1.02961 0,0 1.04866,-0.03927 1.04866,-0.03927"
         id="path4506-8-3"
         inkscape:path-effect="#path-effect4508-7-7"
         inkscape:original-d="m 104.90628,67.702121 -0.17468,-1.02961 1.04866,-0.03927"
         sodipodi:nodetypes="ccc" />
    </g>
    <g
       id="g6878-4"
       transform="matrix(-0.98162066,0,0,-0.98162066,155.09661,137.28678)"
       style="stroke-width:0.305617;stroke-miterlimit:4;stroke-dasharray:none">
      <path
         fill="none"
         stroke="#000000"
         d="m 103.20406,72.313476 c 0,0 1.17562,-2.979954 1.25958,-3.811159 0.0915,-0.905702 -1.48874,-2.006606 -1.48874,-2.006606"
         id="path1836-5-1-6"
         style="stroke-width:0.305617;stroke-linecap:round;stroke-miterlimit:4;stroke-dasharray:none"
         sodipodi:nodetypes="csc" />
      <path
         style="fill:none;stroke:#000000;stroke-width:0.305617;stroke-linecap:round;stroke-linejoin:miter;stroke-miterlimit:4;stroke-dasharray:none;stroke-opacity:1"
         d="m 103.14958,67.525321 c 0,0 -0.17468,-1.02961 -0.17468,-1.02961 0,0 1.04866,-0.03927 1.04866,-0.03927"
         id="path4506-7"
         inkscape:path-effect="#path-effect4508-6"
         inkscape:original-d="m 103.14958,67.525321 -0.17468,-1.02961 1.04866,-0.03927"
         sodipodi:nodetypes="ccc" />
      <path
         fill="none"
         stroke="#000000"
         d="m 103.97104,71.414907 c 0,0 0.41993,-0.747711 0.88064,-1.443051 0.48368,-0.72999 0.88473,-1.141263 0.94668,-1.754586 0.0915,-0.905704 -1.06676,-1.544759 -1.06676,-1.544759"
         id="path1836-5-1-8-6"
         style="stroke-width:0.305617;stroke-linecap:round;stroke-miterlimit:4;stroke-dasharray:none"
         sodipodi:nodetypes="cssc" />
      <path
         style="fill:none;stroke:#000000;stroke-width:0.305617;stroke-linecap:round;stroke-linejoin:miter;stroke-miterlimit:4;stroke-dasharray:none;stroke-opacity:1"
         d="m 104.90628,67.702121 c 0,0 -0.17468,-1.02961 -0.17468,-1.02961 0,0 1.04866,-0.03927 1.04866,-0.03927"
         id="path4506-8-0"
         inkscape:path-effect="#path-effect4508-7-0"
         inkscape:original-d="m 104.90628,67.702121 -0.17468,-1.02961 1.04866,-0.03927"
         sodipodi:nodetypes="ccc" />
    </g>
  </g>
  <metadata
     id="metadata944">
    <rdf:RDF>
      <cc:Work
         rdf:about="">
        <dc:title>   THE CURIA LAZY WEASEL    -    3x40 S                           </dc:title>
      </cc:Work>
    </rdf:RDF>
  </metadata>
</svg>
